# xmcd
#
# Track frame offsets:
#	150
#	17508
#	35306
#	50824
#	67254
#	83197
#	103399
#	121760
#	138808
#	153649
#	168144
#	186842
#	205276
#	220285
#	235825
#
# Disc length: 3385 seconds
#
# Revision: 1
# Processed by: cddbd v1.5.2PL0 Copyright (c) Steve Scherf et al.
# Submitted via: audiograbber 1.83.01
#
DISCID=d30d370f
DTITLE=Various Artist - SA - Iskelm‰gaala - CD 1 - 2
DYEAR=2015
DGENRE=Pop
TTITLE0=Jari Sillanp‰‰ - Sin‰ Ansaitset Kultaa
TTITLE1=Kaija Koo - Supernaiset
TTITLE2=Arttu Wiskari Feat. Ulpu - Sirpa
TTITLE3=Juha Tapio - Meill‰ On Aikaa
TTITLE4=Jenni Vartiainen - Suru On Kunniavieras
TTITLE5=Samuli Edelmann - Mahdollisuus
TTITLE6=Hector - Tavallinen Suomalainen Mies
TTITLE7=Suvi Ter‰sniska - Jos Olisin Mun Mies
TTITLE8=Agents and Vesa Haaja - Yksin Sinun
TTITLE9=Elias Kaskinen and P‰iv‰n Sankarit - Sano Se Mulle
TTITLE10=Antti Railio - Halla Ja Etel‰tuuli
TTITLE11=Yˆ - Ei Synti‰ Sen Kauniimpaa
TTITLE12=Virve Rosti - Leikit‰‰n
TTITLE13=Nelj‰nsuora Feat. Stig - Kes‰ Viel‰ J‰‰d‰ Vois
TTITLE14=Katri Helena - Taivaan Tie
EXTD=
EXTT0=
EXTT1=
EXTT2=
EXTT3=
EXTT4=
EXTT5=
EXTT6=
EXTT7=
EXTT8=
EXTT9=
EXTT10=
EXTT11=
EXTT12=
EXTT13=
EXTT14=
PLAYORDER=
